<svg xmlns="http://www.w3.org/2000/svg" viewBox="0 0 1000 1000">
  <rect width="1000" height="1000" fill="#2E77BC"/>
  <path fill="#fff" d="M500,285.71V714.29H142.86V285.71H500z M464.29,321.43H178.57v357.14H464.29V321.43z M250,500h71.43v-35.71H250V500z M357.14,500h71.43v-35.71H357.14V500z M250,571.43h71.43v-35.71H250V571.43z M357.14,571.43h71.43v-35.71H357.14V571.43z"/>
  <path fill="#fff" d="M857.14,285.71V714.29H500V285.71H857.14z M821.43,321.43H535.71v357.14H821.43V321.43z M607.14,500h71.43v-35.71H607.14V500z M714.29,500h71.43v-35.71H714.29V500z M607.14,571.43h71.43v-35.71H607.14V571.43z M714.29,571.43h71.43v-35.71H714.29V571.43z"/>
</svg>