<svg xmlns="http://www.w3.org/2000/svg" viewBox="0 0 1000 775.86">
  <path fill="#FF5F00" d="M364.08,387.93c0-99.1,46.46-187.42,118.9-244.24C431.48,90.11,359,61.21,281.1,61.21,125.86,61.21,0,187.07,0,342.31S125.86,623.41,281.1,623.41c77.93,0,150.38-28.9,201.88-82.48C410.54,575.35,364.08,487,364.08,387.93Z"/>
  <path fill="#EB001B" d="M364.08,387.93c0,99.1,46.46,187.42,118.9,244.24c72.44-56.82,118.9-145.14,118.9-244.24S555.42,200.51,483,143.69C410.54,200.51,364.08,288.83,364.08,387.93Z"/>
  <path fill="#F79E1B" d="M718.9,61.21c-77.93,0-150.38,28.9-201.88,82.48c72.44,56.82,118.9,145.14,118.9,244.24S589.46,575.35,517,632.17c51.5,53.58,124,82.48,201.88,82.48C874.14,714.65,1000,588.79,1000,433.55S874.14,61.21,718.9,61.21Z"/>
</svg>