<svg xmlns="http://www.w3.org/2000/svg" viewBox="0 0 1000 1000">
  <path fill="#003087" d="M747.92,295.83c-1.25-8.33-8.33-13.33-17.5-13.33H480.42c-5.83,0-10.83,4.17-12.5,10L385.42,641.67c-0.83,4.17,2.5,8.33,7.5,8.33h105.83c4.17,0,7.5-3.33,8.33-7.5l21.67-136.67c1.67-5.83,6.67-10,12.5-10h80c120.83,0,190.83-58.33,209.17-173.33C835,285.83,815,268.33,747.92,295.83z"/>
  <path fill="#009CDE" d="M252.08,295.83c-1.25-8.33-8.33-13.33-17.5-13.33H-15c-5.83,0-10.83,4.17-12.5,10L-110,641.67c-0.83,4.17,2.5,8.33,7.5,8.33h98.33c5.83,0,10.83-4.17,12.5-10l21.67-136.67c1.67-5.83,6.67-10,12.5-10h80c120.83,0,190.83-58.33,209.17-173.33C336.67,285.83,319.17,268.33,252.08,295.83z"/>
</svg>