<svg xmlns="http://www.w3.org/2000/svg" viewBox="0 0 1000 324.68">
  <path fill="#1434CB" d="M651.19,0,554.86,324.68h-97L554.86,0Z"/>
  <path fill="#1434CB" d="M456.85,0,357.06,220.51,336.77,117.13c-2.24-9-10.69-19.19-20.89-24.42L217.28,0h-.5V2.49h2.73c19.7,0,37.42,5.21,46.63,22.91L324.68,220,421,0Z"/>
  <path fill="#1434CB" d="M272.28,0H127.43L126.94,2.49c35.91,8.68,67.79,21.91,98.18,38.14L272.28,0Z"/>
  <path fill="#F99F1B" d="M902.17,0c-19.2,0-34.39,5.21-42.58,24.42L755.25,324.68h96.95L869.77,265h108.63l9.95,59.69H1000L934.05,0Zm-12.18,192.57,44.82-136.4,25.62,136.4Z"/>
</svg>